<svg xmlns="http://www.w3.org/2000/svg"><symbol id="hand1" viewBox="0 0 39 49"><path d="M34.1318 5.74479V21.6304C35.3085 21.8265 36.2891 22.2187 36.8775 22.8071C38.6425 24.9644 38.0542 30.848 38.0542 33.0053C38.0542 53.7938 0.987793 53.7938 0.987793 33.0053C0.987793 28.2984 0.987793 23.3955 0.987793 18.4925C0.987793 14.9624 7.26358 14.1779 9.81312 16.5313C11.5782 14.7662 15.5006 14.7662 17.4617 16.3352C19.0307 14.7662 22.1686 14.5701 24.3259 15.5507V5.74479C24.3259 -1.11936 34.1318 -1.11936 34.1318 5.74479ZM32.1706 21.2382V5.74479C32.1706 1.6263 26.2871 1.6263 26.2871 5.74479V21.2382C28.2483 21.2382 30.4056 21.2382 32.1706 21.2382ZM24.3259 21.2382V18.2964C24.3259 16.5313 18.6385 16.5313 18.4423 18.2964C18.6385 23.7877 18.6385 27.7101 18.6385 31.6324C18.8346 33.2014 24.3259 33.7897 24.3259 31.0441C19.619 29.8674 20.5996 25.7489 20.5996 21.4343C21.3841 21.4343 22.7569 21.4343 24.3259 21.2382ZM26.2871 31.2402C26.2871 35.1626 20.2074 35.7509 17.6579 33.7897C15.8928 35.5548 11.5782 35.5548 9.81312 33.7897C8.24418 35.1626 5.10628 35.5548 3.1451 34.5742C4.71404 51.2443 36.093 50.6559 36.093 33.0053C36.093 31.6324 36.4852 25.3566 35.3085 24.1799C34.1318 22.8071 24.3259 23.3955 22.5608 23.3955C22.5608 25.945 21.9725 29.0829 25.3065 29.279H30.4056C32.5629 29.279 32.5629 33.5936 30.6017 33.5936C27.0716 33.7897 25.3065 35.7509 25.1104 39.2811C25.1104 40.4578 23.1492 40.4578 23.3453 39.2811C23.3453 35.1626 25.5026 32.4169 29.425 31.6324V31.2402H26.2871ZM2.94898 32.0247C3.34121 33.5936 8.83253 33.5936 8.83253 31.8285V18.4925C8.83253 16.9235 2.94898 16.7274 2.94898 18.4925C2.94898 23.0032 2.94898 27.5139 2.94898 32.0247ZM16.6773 31.8285C16.4812 28.8868 16.4812 22.611 16.4812 18.4925C16.285 16.7274 10.7937 16.7274 10.7937 18.4925V31.8285C10.7937 33.5936 16.4812 33.5936 16.6773 31.8285Z" fill="#EE58B6"/>
</symbol><symbol id="hand2" viewBox="0 0 36 49"><path d="M35.7483 9.25712L33.3557 23.6126C36.4845 25.269 35.5642 31.1584 35.5642 34.1032C35.5642 53.4279 0.779785 53.4279 0.779785 34.1032C0.779785 29.502 0.779785 24.9009 0.779785 20.4838C0.779785 16.803 6.85326 16.4349 9.0618 18.4594C10.5342 16.987 13.6629 16.987 15.5034 17.9072L14.7672 5.02409C14.3991 -0.497253 23.6013 -1.04939 23.9694 4.47195L24.7056 19.9317L26.7301 7.78476C27.6503 1.89533 36.6685 2.63151 35.7483 9.25712ZM21.0247 24.9009C21.0247 32.0787 22.4971 29.8701 28.3865 30.4223C28.9386 30.4223 29.3067 30.7903 29.3067 31.3425V33.551C29.3067 35.2074 23.7854 33.367 23.4173 39.8085C23.4173 41.0969 21.5768 40.9128 21.7609 39.8085C21.7609 35.9436 23.7854 33.367 27.4663 32.6308V32.2627C19.0002 32.6308 19.1843 31.3425 19.1843 23.0605C20.4726 23.0605 21.7609 23.0605 23.0492 23.0605C23.0492 17.171 22.313 10.5454 22.129 4.656C21.9449 1.52724 16.4236 1.89533 16.6076 5.02409L17.3438 22.6924V32.8148C17.3438 36.3117 11.0863 36.6798 9.0618 34.6553C7.58944 36.1276 4.46068 36.1276 2.80428 35.3915C4.27664 51.0353 33.7238 50.4831 33.7238 34.1032C33.9078 23.2445 33.7238 24.9009 21.0247 24.9009ZM2.62023 32.9989C2.98832 34.4712 8.14157 34.4712 8.14157 32.8148V20.4838C8.14157 18.6434 2.62023 18.6434 2.62023 20.4838C2.62023 24.5328 2.62023 28.7659 2.62023 32.9989ZM26.178 23.0605C28.0184 23.0605 29.8589 23.0605 31.6993 23.0605L33.9078 8.88903C34.46 4.84004 29.1227 4.47195 28.3865 7.9688L26.178 23.0605ZM15.5034 32.8148V20.4838C15.5034 18.6434 9.98202 18.6434 9.98202 20.4838V32.8148C9.98202 34.4712 15.5034 34.4712 15.5034 32.8148Z" fill="#EE58B6"/>
</symbol><symbol id="hand3" viewBox="0 0 46 49"><path d="M29.2106 34.4987C26.0793 33.7619 23.3164 36.3406 23.1322 39.8403C23.1322 41.1297 21.2902 40.9455 21.4744 39.8403C21.6586 34.6829 24.7899 32.841 28.8422 32.4726C28.8422 32.4726 29.3948 31.92 30.1315 31.3674L33.6312 8.89575C34.1838 4.84348 28.8422 4.4751 28.1054 7.97478L26.0793 21.6051C27.0002 21.7893 27.737 22.1577 28.658 22.3419C29.3948 22.7103 28.658 24.368 27.9212 24.1838C25.3425 23.0787 22.5796 22.7103 19.8167 22.7103C18.8957 22.8945 18.7115 20.8684 19.6325 20.8684C20.7377 20.8684 21.6586 20.8684 22.7638 21.0526C22.7638 15.7109 22.027 9.81672 21.8428 4.65929C21.6586 1.52799 16.1328 1.89638 16.317 5.02768L17.0538 20.5V32.841C17.0538 36.3406 10.7912 36.709 8.76505 34.6829C7.2915 36.1565 4.1602 36.1565 2.50245 35.4197C3.976 49.971 29.2106 50.5236 32.8945 37.4458C33.0787 37.2616 42.1042 30.6306 42.8409 29.8939C38.2361 23.6313 34.368 30.999 29.2106 34.4987ZM32.1577 29.7097C38.0519 24.368 40.8148 23.9997 45.4196 30.0781C42.2883 32.841 37.3151 36.3406 34.368 38.9194C29.0264 53.2865 0.476318 51.6287 0.476318 34.1303C0.476318 29.5255 0.476318 24.9206 0.476318 20.5C0.476318 16.8161 6.55472 16.4477 8.76505 18.4738C10.2386 17.0003 13.3699 17.0003 15.2118 17.9213L14.4751 5.02768C14.1067 -0.49814 23.3164 -1.05072 23.6848 4.4751L24.4215 19.9474L26.4477 7.79059C27.3686 1.89638 36.3941 2.63316 35.4732 9.26414L32.1577 29.7097ZM2.31826 33.0252C2.68665 34.4987 7.84408 34.4987 7.84408 32.841V20.5C7.84408 18.658 2.31826 18.658 2.31826 20.5C2.31826 24.5522 2.31826 28.7887 2.31826 33.0252ZM15.2118 32.841V20.5C15.2118 18.658 9.68602 18.658 9.68602 20.5V32.841C9.68602 34.4987 15.2118 34.4987 15.2118 32.841Z" fill="#EE58B6"/>
</symbol><symbol id="hand3top" viewBox="0 0 36 49"><path d="M35.7348 33.9723C35.7348 53.0722 1.53685 53.7998 1.53685 33.0628C0.627333 29.4247 -0.464091 27.2418 1.90066 24.6952C3.5378 23.0581 4.99303 21.9666 7.72159 22.3304C7.17588 17.7828 6.44826 12.8714 5.90255 8.14193C4.99303 1.59338 13.9063 0.320054 14.8158 6.8686L16.2711 17.419V5.77717C16.2711 -1.31708 25.1844 -1.31708 25.1844 5.77717V18.6924L27.0034 7.41431C27.9129 1.22957 36.8262 2.5029 35.9167 8.68764L33.552 23.6038C36.8262 25.2409 35.7348 31.0618 35.7348 33.9723ZM7.17588 23.9676C5.53874 23.6038 1.90066 26.878 2.26447 28.3333L15.1797 30.5161C19.1815 31.2437 20.0911 25.9685 16.0892 25.2409L7.17588 23.9676ZM2.81018 30.3342L3.35589 32.5171C3.9016 52.1627 33.9158 50.1618 33.9158 33.9723C33.9158 22.8762 35.1891 25.059 21.5463 25.059C21.5463 31.6075 21.7282 29.7885 28.8225 30.5161C30.0958 30.5161 29.732 32.699 29.732 33.4266C29.732 35.6094 24.2749 33.0628 23.911 39.7932C23.911 40.8847 22.092 40.8847 22.092 39.6113C22.2739 35.9732 24.093 33.4266 27.9129 32.699V32.3352C22.6377 32.3352 20.6368 31.7894 20.0911 29.7885C19.3634 31.6075 17.5444 32.8809 14.9977 32.3352L2.81018 30.3342ZM19.7273 25.4228C19.7273 24.6952 19.7273 23.9676 19.7273 23.24C23.7291 23.24 27.9129 23.0581 31.9148 23.24L34.0977 8.50573C34.6434 4.68575 29.3682 3.77623 28.8225 7.77812L26.6396 22.3304C25.5482 22.3304 24.4568 22.3304 23.3653 22.3304V5.77717C23.3653 1.22957 18.0901 1.22957 18.0901 5.77717V22.1485C16.9987 22.1485 16.0892 22.1485 14.9977 22.3304L12.9968 7.23241C12.4511 3.04861 7.17588 3.77623 7.72159 7.96002C8.2673 12.6895 8.99492 17.6009 9.72253 22.5123C14.9978 23.24 19.1815 23.0581 19.7273 25.4228Z" fill="#EE58B6"/>
</symbol><symbol id="hand5" viewBox="0 0 51 49"><path d="M5.85425 33.0635L0.942739 13.0536C-0.512525 6.86874 8.21906 4.68584 9.67432 10.8707L11.8572 19.2385L10.22 8.14209C9.49241 1.59341 18.4059 0.320051 19.3154 6.86874L20.5888 17.4194V5.77729C20.5888 -1.31712 29.6842 -1.31712 29.6842 5.77729V18.6928L31.3214 7.41446C32.2309 1.22959 41.1444 2.50295 40.2349 8.68782C39.3253 15.7822 38.2339 22.6947 37.1424 29.6072C42.7816 24.15 45.5102 23.7862 50.2398 29.7891C47.3293 32.5178 42.4178 36.1559 39.5072 38.7026C34.5957 52.5276 5.85425 52.5276 5.85425 33.0635ZM38.4158 8.50591C39.1434 4.68584 33.6862 3.7763 33.1405 7.77828L30.9576 22.3309C29.8661 22.3309 28.9566 22.3309 27.8651 22.3309V5.77729C27.8651 1.22959 22.4079 1.22959 22.4079 5.77729V22.149C21.4983 22.149 20.4069 22.149 19.4974 22.3309L17.4964 7.23255C16.9506 3.04867 11.4934 3.7763 12.0391 7.96019L14.222 23.4224C13.1306 23.7862 12.221 23.9681 11.1296 24.15L7.85524 11.2345C6.9457 7.59637 1.67037 8.86973 2.76182 12.6898L7.67333 32.5178C8.21906 51.8 34.7776 49.6171 38.052 37.0655C38.052 36.8836 46.9655 30.3349 47.6931 29.6072C43.1454 23.6043 39.3253 30.6987 34.4138 34.3368C31.1395 33.7911 28.5928 36.1559 28.4108 39.6122C28.4108 40.8855 26.5918 40.8855 26.5918 39.6122C26.7737 34.7007 29.8661 32.6997 33.8681 32.3359C34.05 32.3359 34.4138 31.7901 35.1414 31.2444C36.2329 23.7862 37.3243 16.146 38.4158 8.50591Z" fill="#EE58B6"/>
</symbol><symbol id="hand4" viewBox="0 0 41 49"><path d="M40.442 33.9723C40.442 53.0722 6.06215 53.7998 6.06215 33.0628L1.15074 13.0533C-0.304489 6.8686 8.4269 4.68575 9.88214 10.8705L12.065 19.2381L10.4278 8.14193C9.70023 1.59338 18.6135 0.320054 19.523 6.8686L20.7964 17.419V5.77717C20.7964 -1.31708 29.8916 -1.31708 29.8916 5.77717V18.6924L31.5287 7.41431C32.4382 1.22957 41.3515 2.5029 40.442 8.68764L38.2592 23.6038C41.3515 25.2409 40.442 31.0618 40.442 33.9723ZM7.88119 32.5171C8.4269 52.1627 38.623 50.1618 38.623 33.9723C38.623 22.8762 39.8963 25.059 26.0716 25.059C26.0716 31.6075 26.2535 29.7885 33.3478 30.5161C34.803 30.5161 34.2573 32.699 34.2573 33.4266C34.2573 35.6094 28.8002 33.0628 28.6182 39.7932C28.4363 40.8847 26.7992 40.8847 26.7992 39.6113C26.9811 35.9732 28.8002 33.4266 32.4382 32.699V32.3352C23.5249 32.3352 24.2526 31.0618 24.2526 23.24C28.4363 23.24 32.4382 23.0581 36.4401 23.24L38.623 8.50573C39.3506 4.68575 33.8935 3.77623 33.3478 7.77812L31.1649 22.3304C30.0735 22.3304 29.164 22.3304 28.0725 22.3304V5.77717C28.0725 1.22957 22.6154 1.22957 22.6154 5.77717V22.1485C21.7059 22.1485 20.6145 22.1485 19.705 22.3304L17.704 7.23241C17.1583 3.04861 11.7012 3.77623 12.2469 7.96002L14.4297 23.4219C13.3383 23.7857 12.4288 23.9676 11.3374 24.1495L8.0631 11.2343C7.15358 7.59621 1.87836 8.86954 2.96978 12.6895L7.88119 32.5171Z" fill="#EE58B6"/>
</symbol><symbol id="logo-black" viewBox="0 0 203 48"><path d="M2.55934 13.4152H12.365C14.7085 13.4152 16.7745 13.8674 18.5629 14.7719C20.372 15.6559 21.7698 16.9099 22.7566 18.5339C23.7639 20.1579 24.2675 22.0491 24.2675 24.2076C24.2675 26.3661 23.7639 28.2573 22.7566 29.8813C21.7698 31.5053 20.372 32.7696 18.5629 33.6741C16.7745 34.558 14.7085 35 12.365 35H2.55934V13.4152ZM12.1183 30.8989C14.2768 30.8989 15.9933 30.3027 17.2678 29.1104C18.5629 27.8976 19.2105 26.2633 19.2105 24.2076C19.2105 22.1519 18.5629 20.5279 17.2678 19.3356C15.9933 18.1227 14.2768 17.5163 12.1183 17.5163H7.55468V30.8989H12.1183ZM34.2018 35.2467C32.4545 35.2467 30.8819 34.8869 29.484 34.1674C28.1067 33.4274 27.0274 32.4098 26.2463 31.1147C25.4651 29.8196 25.0745 28.3498 25.0745 26.7053C25.0745 25.0607 25.4651 23.5909 26.2463 22.2958C27.0274 21.0007 28.1067 19.9934 29.484 19.2739C30.8819 18.5339 32.4545 18.1638 34.2018 18.1638C35.9491 18.1638 37.5115 18.5339 38.8888 19.2739C40.2661 19.9934 41.3454 21.0007 42.1265 22.2958C42.9077 23.5909 43.2983 25.0607 43.2983 26.7053C43.2983 28.3498 42.9077 29.8196 42.1265 31.1147C41.3454 32.4098 40.2661 33.4274 38.8888 34.1674C37.5115 34.8869 35.9491 35.2467 34.2018 35.2467ZM34.2018 31.2997C35.4352 31.2997 36.4425 30.8886 37.2237 30.0663C38.0254 29.2235 38.4263 28.1031 38.4263 26.7053C38.4263 25.3074 38.0254 24.1973 37.2237 23.375C36.4425 22.5322 35.4352 22.1108 34.2018 22.1108C32.9684 22.1108 31.9508 22.5322 31.1491 23.375C30.3474 24.1973 29.9465 25.3074 29.9465 26.7053C29.9465 28.1031 30.3474 29.2235 31.1491 30.0663C31.9508 30.8886 32.9684 31.2997 34.2018 31.2997ZM55.2092 18.1638C57.2649 18.1638 58.9197 18.7806 60.1737 20.014C61.4482 21.2474 62.0855 23.077 62.0855 25.5027V35H57.2752V26.2427C57.2752 24.9271 56.9874 23.9506 56.4118 23.3134C55.8362 22.6555 55.0036 22.3266 53.9141 22.3266C52.7012 22.3266 51.735 22.7069 51.0156 23.4675C50.2961 24.2076 49.9363 25.3177 49.9363 26.7978V35H45.126V18.4105H49.7205V20.3532C50.3577 19.6542 51.1492 19.1197 52.0948 18.7497C53.0404 18.3591 54.0785 18.1638 55.2092 18.1638ZM65.5516 11.8426H70.7319L74.8947 16.2829H71.1328L65.5516 11.8426ZM92.8597 34.1983C92.3869 34.5477 91.8011 34.815 91.1021 35C90.4237 35.1645 89.7042 35.2467 88.9436 35.2467C86.9702 35.2467 85.4387 34.743 84.3492 33.7357C83.2802 32.7285 82.7457 31.2484 82.7457 29.2954V22.4808H80.1864V18.7806H82.7457V14.7411H87.556V18.7806H91.688V22.4808H87.556V29.2338C87.556 29.9327 87.7308 30.4775 88.0802 30.8681C88.4503 31.2381 88.9642 31.4231 89.622 31.4231C90.3826 31.4231 91.0302 31.2175 91.5646 30.8064L92.8597 34.1983ZM147.643 18.4105H152.453V35H147.643V18.4105ZM150.048 16.0979C149.164 16.0979 148.445 15.8409 147.89 15.327C147.335 14.8131 147.057 14.1758 147.057 13.4152C147.057 12.6546 147.335 12.0173 147.89 11.5034C148.445 10.9895 149.164 10.7325 150.048 10.7325C150.932 10.7325 151.652 10.9792 152.207 11.4726C152.762 11.9659 153.039 12.5826 153.039 13.3227C153.039 14.1244 152.762 14.7925 152.207 15.327C151.652 15.8409 150.932 16.0979 150.048 16.0979ZM166.23 34.1983C165.757 34.5477 165.171 34.815 164.472 35C163.794 35.1645 163.075 35.2467 162.314 35.2467C160.34 35.2467 158.809 34.743 157.719 33.7357C156.65 32.7285 156.116 31.2484 156.116 29.2954V22.4808H153.557V18.7806H156.116V14.7411H160.926V18.7806H165.058V22.4808H160.926V29.2338C160.926 29.9327 161.101 30.4775 161.451 30.8681C161.821 31.2381 162.334 31.4231 162.992 31.4231C163.753 31.4231 164.4 31.2175 164.935 30.8064L166.23 34.1983Z" fill="black"/>
<path d="M118.415 12.1201V35H113.821V33.0882C112.629 34.5272 110.902 35.2467 108.64 35.2467C107.078 35.2467 105.66 34.8972 104.385 34.1983C103.131 33.4993 102.144 32.5023 101.425 31.2072C100.706 29.9122 100.346 28.4115 100.346 26.7053C100.346 24.999 100.706 23.4984 101.425 22.2033C102.144 20.9082 103.131 19.9112 104.385 19.2123C105.66 18.5133 107.078 18.1638 108.64 18.1638C110.758 18.1638 112.413 18.8319 113.605 20.1682V12.1201H118.415ZM109.473 31.2997C110.686 31.2997 111.693 30.8886 112.495 30.0663C113.297 29.2235 113.698 28.1031 113.698 26.7053C113.698 25.3074 113.297 24.1973 112.495 23.375C111.693 22.5322 110.686 22.1108 109.473 22.1108C108.24 22.1108 107.222 22.5322 106.42 23.375C105.619 24.1973 105.218 25.3074 105.218 26.7053C105.218 28.1031 105.619 29.2235 106.42 30.0663C107.222 30.8886 108.24 31.2997 109.473 31.2997ZM129.374 35.2467C127.626 35.2467 126.054 34.8869 124.656 34.1674C123.279 33.4274 122.199 32.4098 121.418 31.1147C120.637 29.8196 120.246 28.3498 120.246 26.7053C120.246 25.0607 120.637 23.5909 121.418 22.2958C122.199 21.0007 123.279 19.9934 124.656 19.2739C126.054 18.5339 127.626 18.1638 129.374 18.1638C131.121 18.1638 132.683 18.5339 134.061 19.2739C135.438 19.9934 136.517 21.0007 137.298 22.2958C138.08 23.5909 138.47 25.0607 138.47 26.7053C138.47 28.3498 138.08 29.8196 137.298 31.1147C136.517 32.4098 135.438 33.4274 134.061 34.1674C132.683 34.8869 131.121 35.2467 129.374 35.2467ZM129.374 31.2997C130.607 31.2997 131.614 30.8886 132.396 30.0663C133.197 29.2235 133.598 28.1031 133.598 26.7053C133.598 25.3074 133.197 24.1973 132.396 23.375C131.614 22.5322 130.607 22.1108 129.374 22.1108C128.14 22.1108 127.123 22.5322 126.321 23.375C125.519 24.1973 125.118 25.3074 125.118 26.7053C125.118 28.1031 125.519 29.2235 126.321 30.0663C127.123 30.8886 128.14 31.2997 129.374 31.2997Z" fill="#EE58B6"/>
</symbol><symbol id="logo-white" viewBox="0 0 165 26"><path d="M0.559342 3.41519H10.365C12.7085 3.41519 14.7745 3.86744 16.5629 4.77195C18.372 5.6559 19.7698 6.90987 20.7566 8.53387C21.7639 10.1579 22.2675 12.0491 22.2675 14.2076C22.2675 16.3661 21.7639 18.2573 20.7566 19.8813C19.7698 21.5053 18.372 22.7696 16.5629 23.6741C14.7745 24.558 12.7085 25 10.365 25H0.559342V3.41519ZM10.1183 20.8989C12.2768 20.8989 13.9933 20.3027 15.2678 19.1104C16.5629 17.8976 17.2105 16.2633 17.2105 14.2076C17.2105 12.1519 16.5629 10.5279 15.2678 9.33559C13.9933 8.12273 12.2768 7.5163 10.1183 7.5163H5.55468V20.8989H10.1183ZM32.2018 25.2467C30.4545 25.2467 28.8819 24.8869 27.484 24.1674C26.1067 23.4274 25.0274 22.4098 24.2463 21.1147C23.4651 19.8196 23.0745 18.3498 23.0745 16.7053C23.0745 15.0607 23.4651 13.5909 24.2463 12.2958C25.0274 11.0007 26.1067 9.99342 27.484 9.27392C28.8819 8.53387 30.4545 8.16385 32.2018 8.16385C33.9491 8.16385 35.5115 8.53387 36.8888 9.27392C38.2661 9.99342 39.3454 11.0007 40.1265 12.2958C40.9077 13.5909 41.2983 15.0607 41.2983 16.7053C41.2983 18.3498 40.9077 19.8196 40.1265 21.1147C39.3454 22.4098 38.2661 23.4274 36.8888 24.1674C35.5115 24.8869 33.9491 25.2467 32.2018 25.2467ZM32.2018 21.2997C33.4352 21.2997 34.4425 20.8886 35.2237 20.0663C36.0254 19.2235 36.4263 18.1031 36.4263 16.7053C36.4263 15.3074 36.0254 14.1973 35.2237 13.375C34.4425 12.5322 33.4352 12.1108 32.2018 12.1108C30.9684 12.1108 29.9508 12.5322 29.1491 13.375C28.3474 14.1973 27.9465 15.3074 27.9465 16.7053C27.9465 18.1031 28.3474 19.2235 29.1491 20.0663C29.9508 20.8886 30.9684 21.2997 32.2018 21.2997ZM53.2092 8.16385C55.2649 8.16385 56.9197 8.78056 58.1737 10.014C59.4482 11.2474 60.0855 13.077 60.0855 15.5027V25H55.2752V16.2427C55.2752 14.9271 54.9874 13.9506 54.4118 13.3134C53.8362 12.6555 53.0036 12.3266 51.9141 12.3266C50.7012 12.3266 49.735 12.7069 49.0156 13.4675C48.2961 14.2076 47.9363 15.3177 47.9363 16.7978V25H43.126V8.41053H47.7205V10.3532C48.3577 9.65423 49.1492 9.11975 50.0948 8.74972C51.0404 8.35914 52.0785 8.16385 53.2092 8.16385ZM63.5516 1.84258H68.7319L72.8947 6.28288H69.1328L63.5516 1.84258ZM90.8597 24.1983C90.3869 24.5477 89.8011 24.815 89.1021 25C88.4237 25.1645 87.7042 25.2467 86.9436 25.2467C84.9702 25.2467 83.4387 24.743 82.3492 23.7357C81.2802 22.7285 80.7457 21.2484 80.7457 19.2954V12.4808H78.1864V8.78056H80.7457V4.74111H85.556V8.78056H89.688V12.4808H85.556V19.2338C85.556 19.9327 85.7308 20.4775 86.0802 20.8681C86.4503 21.2381 86.9642 21.4231 87.622 21.4231C88.3826 21.4231 89.0302 21.2175 89.5646 20.8064L90.8597 24.1983ZM145.643 8.41053H150.453V25H145.643V8.41053ZM148.048 6.09787C147.164 6.09787 146.445 5.84091 145.89 5.32699C145.335 4.81306 145.057 4.1758 145.057 3.41519C145.057 2.65458 145.335 2.01731 145.89 1.50339C146.445 0.989467 147.164 0.732504 148.048 0.732504C148.932 0.732504 149.652 0.979188 150.207 1.47256C150.762 1.96592 151.039 2.58263 151.039 3.32268C151.039 4.1244 150.762 4.79251 150.207 5.32699C149.652 5.84091 148.932 6.09787 148.048 6.09787ZM164.23 24.1983C163.757 24.5477 163.171 24.815 162.472 25C161.794 25.1645 161.075 25.2467 160.314 25.2467C158.34 25.2467 156.809 24.743 155.719 23.7357C154.65 22.7285 154.116 21.2484 154.116 19.2954V12.4808H151.557V8.78056H154.116V4.74111H158.926V8.78056H163.058V12.4808H158.926V19.2338C158.926 19.9327 159.101 20.4775 159.451 20.8681C159.821 21.2381 160.334 21.4231 160.992 21.4231C161.753 21.4231 162.4 21.2175 162.935 20.8064L164.23 24.1983Z" fill="white"/>
<path d="M116.415 2.1201V25H111.821V23.0882C110.629 24.5272 108.902 25.2467 106.64 25.2467C105.078 25.2467 103.66 24.8972 102.385 24.1983C101.131 23.4993 100.144 22.5023 99.425 21.2072C98.7055 19.9122 98.3458 18.4115 98.3458 16.7053C98.3458 14.999 98.7055 13.4984 99.425 12.2033C100.144 10.9082 101.131 9.91119 102.385 9.21225C103.66 8.51332 105.078 8.16385 106.64 8.16385C108.758 8.16385 110.413 8.83195 111.605 10.1682V2.1201H116.415ZM107.473 21.2997C108.686 21.2997 109.693 20.8886 110.495 20.0663C111.297 19.2235 111.698 18.1031 111.698 16.7053C111.698 15.3074 111.297 14.1973 110.495 13.375C109.693 12.5322 108.686 12.1108 107.473 12.1108C106.24 12.1108 105.222 12.5322 104.42 13.375C103.619 14.1973 103.218 15.3074 103.218 16.7053C103.218 18.1031 103.619 19.2235 104.42 20.0663C105.222 20.8886 106.24 21.2997 107.473 21.2997ZM127.374 25.2467C125.626 25.2467 124.054 24.8869 122.656 24.1674C121.279 23.4274 120.199 22.4098 119.418 21.1147C118.637 19.8196 118.246 18.3498 118.246 16.7053C118.246 15.0607 118.637 13.5909 119.418 12.2958C120.199 11.0007 121.279 9.99342 122.656 9.27392C124.054 8.53387 125.626 8.16385 127.374 8.16385C129.121 8.16385 130.683 8.53387 132.061 9.27392C133.438 9.99342 134.517 11.0007 135.298 12.2958C136.08 13.5909 136.47 15.0607 136.47 16.7053C136.47 18.3498 136.08 19.8196 135.298 21.1147C134.517 22.4098 133.438 23.4274 132.061 24.1674C130.683 24.8869 129.121 25.2467 127.374 25.2467ZM127.374 21.2997C128.607 21.2997 129.614 20.8886 130.396 20.0663C131.197 19.2235 131.598 18.1031 131.598 16.7053C131.598 15.3074 131.197 14.1973 130.396 13.375C129.614 12.5322 128.607 12.1108 127.374 12.1108C126.14 12.1108 125.123 12.5322 124.321 13.375C123.519 14.1973 123.118 15.3074 123.118 16.7053C123.118 18.1031 123.519 19.2235 124.321 20.0663C125.123 20.8886 126.14 21.2997 127.374 21.2997Z" fill="#EE58B6"/>
</symbol><symbol id="notebook" viewBox="0 0 61 60"><path d="M48.5307 4.42322H17.7882C15.7278 4.42322 14.0513 6.09972 14.0513 8.16006V13.4502H10.3151C9.8194 13.4502 9.41821 13.8514 9.41821 14.3471C9.41821 14.8427 9.8194 15.2439 10.3151 15.2439H14.0513V21.4459H10.3151C9.8194 21.4459 9.41821 21.8471 9.41821 22.3427C9.41821 22.8384 9.8194 23.2396 10.3151 23.2396H14.0513V29.4416H10.3151C9.8194 29.4416 9.41821 29.8427 9.41821 30.3384C9.41821 30.8335 9.8194 31.2352 10.3151 31.2352H14.0513V37.4366H10.3151C9.8194 37.4366 9.41821 37.8384 9.41821 38.3335C9.41821 38.8285 9.8194 39.2303 10.3151 39.2303H14.0513V44.8338H10.3151C9.8194 44.8338 9.41821 45.2356 9.41821 45.7306C9.41821 46.2257 9.8194 46.6275 10.3151 46.6275H14.0513V52.8234C14.0513 54.8838 15.7278 56.5603 17.7882 56.5603H42.1177C42.1195 56.5603 42.1213 56.5609 42.1237 56.5609C42.1261 56.5609 42.1273 56.5603 42.1297 56.5603H48.5313C50.5917 56.5603 52.2682 54.8838 52.2682 52.8234V8.16006C52.2676 6.09972 50.5911 4.42322 48.5307 4.42322ZM15.845 52.8234V46.6275H19.4401C19.9358 46.6275 20.337 46.2257 20.337 45.7306C20.337 45.2356 19.9358 44.8338 19.4401 44.8338H15.845V39.2303H19.4401C19.9358 39.2303 20.337 38.8285 20.337 38.3335C20.337 37.8384 19.9358 37.4366 19.4401 37.4366H15.845V31.2346H19.4401C19.9358 31.2346 20.337 30.8329 20.337 30.3378C20.337 29.8421 19.9358 29.441 19.4401 29.441H15.845V23.2396H19.4401C19.9358 23.2396 20.337 22.8384 20.337 22.3427C20.337 21.8471 19.9358 21.4459 19.4401 21.4459H15.845V15.2439H19.4401C19.9358 15.2439 20.337 14.8427 20.337 14.3471C20.337 13.8514 19.9358 13.4502 19.4401 13.4502H15.845V8.16006C15.845 7.08864 16.7167 6.2169 17.7882 6.2169H41.2262V54.7666H17.7882C16.7167 54.7666 15.845 53.8949 15.845 52.8234ZM50.4739 52.8234C50.4739 53.8949 49.6022 54.7666 48.5307 54.7666H43.0199V6.2169H48.5307C49.6022 6.2169 50.4739 7.08864 50.4739 8.16006V52.8234Z" fill="#EE58B6"/>
</symbol><symbol id="target" viewBox="0 0 61 60"><path d="M29.95 3.93298C15.6346 3.93298 3.98877 15.5794 3.98877 29.8942C3.98877 44.2096 15.6352 55.8554 29.95 55.8554C44.2648 55.8554 55.9112 44.209 55.9112 29.8942C55.9106 15.5794 44.2648 3.93298 29.95 3.93298ZM29.0531 54.0396C16.4393 53.5756 6.26795 43.4042 5.80458 30.791H12.9488C13.4014 39.4665 20.3777 46.4427 29.0531 46.8954V54.0396V54.0396ZM29.0531 45.0969C21.3678 44.6485 15.1963 38.4764 14.7473 30.791H22.273C22.685 34.339 25.5052 37.1586 29.0531 37.5712V45.0969V45.0969ZM29.0531 35.7584C26.4965 35.3685 24.4757 33.3476 24.0858 30.791H29.0531V35.7584ZM24.0852 28.9974C24.4751 26.4408 26.4959 24.4199 29.0525 24.03V28.9974H24.0852ZM29.0531 22.2172C25.5052 22.6298 22.6856 25.4494 22.273 28.9974H14.7473C15.1963 21.312 21.3678 15.1405 29.0531 14.6921V22.2172V22.2172ZM29.0531 12.8936C20.3777 13.3462 13.4014 20.3225 12.9488 28.9974H5.80458C6.26795 16.3842 16.4393 6.21276 29.0531 5.74939V12.8936V12.8936ZM30.8462 5.74939C43.46 6.21276 53.6314 16.3842 54.0942 28.9974H46.9499C46.4973 20.3225 39.5211 13.3462 30.8462 12.8936V5.74939ZM35.8141 30.791C35.4243 33.3476 33.4034 35.3685 30.8468 35.7584V30.791H35.8141ZM30.8468 28.9974V24.03C33.4034 24.4199 35.4243 26.4408 35.8141 28.9974H30.8468ZM37.627 30.791H45.1527C44.7043 38.4764 38.5322 44.6479 30.8474 45.0969L30.8468 37.5712C34.3947 37.1586 37.2144 34.339 37.627 30.791ZM30.8462 14.6915C38.5316 15.1405 44.7031 21.312 45.1515 28.9968H37.6264V28.9974C37.2138 25.4494 34.3941 22.6298 30.8462 22.2172V14.6915ZM30.8468 54.039V46.8948C39.5217 46.4422 46.4979 39.4659 46.9505 30.7904H54.0948C53.6314 43.4042 43.46 53.5756 30.8468 54.039Z" fill="#EE58B6"/>
</symbol><symbol id="time" viewBox="0 0 60 60"><path d="M29.8838 10.1731C18.7899 10.1731 9.76465 19.1989 9.76465 30.2923C9.76465 41.3856 18.7905 50.4115 29.8838 50.4115C40.9778 50.4115 50.0036 41.3856 50.0036 30.2923C50.0036 19.1989 40.9778 10.1731 29.8838 10.1731ZM29.8838 48.2549C19.9791 48.2549 11.9207 40.197 11.9207 30.2923C11.9207 20.3875 19.9791 12.3291 29.8838 12.3291C39.7886 12.3291 47.8464 20.3875 47.8464 30.2923C47.8464 40.197 39.7886 48.2549 29.8838 48.2549Z" fill="#EE58B6"/>
<path d="M34.9678 27.0237L30.6283 31.3632V15.928C30.6283 15.3325 30.1452 14.85 29.5497 14.85C28.9542 14.85 28.4717 15.3325 28.4717 15.928V33.9659C28.4717 34.037 28.4789 34.1082 28.4932 34.1781C28.4992 34.2086 28.5105 34.2367 28.5195 34.2666C28.5303 34.3043 28.5392 34.3426 28.5548 34.3796C28.5697 34.4155 28.5901 34.4478 28.6086 34.4819C28.6235 34.51 28.6361 34.5387 28.654 34.5656C28.733 34.684 28.8352 34.7856 28.9536 34.8651C28.9757 34.8801 28.9996 34.8896 29.0223 34.9022C29.0606 34.9237 29.0977 34.9464 29.1389 34.9638C29.1712 34.9769 29.2053 34.9847 29.2382 34.9949C29.2723 35.005 29.3045 35.0182 29.3398 35.0248C29.4092 35.0385 29.4797 35.0463 29.5503 35.0463C29.6208 35.0463 29.6914 35.0391 29.7607 35.0248C29.796 35.0176 29.8289 35.005 29.863 34.9943C29.8959 34.9841 29.9293 34.9769 29.9616 34.9638C30.0035 34.9464 30.0418 34.9231 30.0806 34.901C30.1027 34.8884 30.1255 34.8795 30.147 34.8651C30.2074 34.8251 30.2636 34.7796 30.3138 34.7282L36.493 28.549C36.914 28.128 36.914 27.4452 36.493 27.0243C36.0715 26.6022 35.3893 26.6022 34.9678 27.0237Z" fill="#EE58B6"/>
<path d="M29.8845 5.40735C16.1628 5.40735 4.99951 16.5707 4.99951 30.293C4.99951 44.0153 16.1628 55.178 29.8845 55.178C43.6062 55.178 54.7701 44.0147 54.7701 30.293C54.7701 16.5713 43.6062 5.40735 29.8845 5.40735ZM29.8845 53.0208C17.352 53.0208 7.15552 42.8248 7.15552 30.2924C7.15552 17.7599 17.3514 7.56336 29.8845 7.56336C42.4176 7.56336 52.6129 17.7599 52.6129 30.2924C52.6129 42.8248 42.417 53.0208 29.8845 53.0208Z" fill="#EE58B6"/>
</symbol></svg>